PathFileType	4	(X/Y/Z)	C:/Users/beibeiliu/ov580/test_trc/User2\sequence.30_training_dense_left.trc
DataRate	CameraRate	NumFrames	NumMarkers	Units	OrigDataRate	OrigDataStartFrame	OrigNumFrames
120	120	19	19	mm	120	265	302
Frame#	Time	ThumbCMC			ThumbMCP			ThumbIP			ThumbTip			IndexMCP			IndexPIP			IndexTip			MiddleMCP			MiddlePIP			MiddleTip			RingMCP			RingPIP			RingTip			PinkyMCP			PinkyPIP			PinkyTip			BackHand1			BackHand2			BackHand3	
		X0	Y0	Z0	X1	Y1	Z1	X2	Y2	Z2	X3	Y3	Z3	X4	Y4	Z4	X5	Y5	Z5	X6	Y6	Z6	X7	Y7	Z7	X8	Y8	Z8	X9	Y9	Z9	X10	Y10	Z10	X11	Y11	Z11	X12	Y12	Z12	X13	Y13	Z13	X14	Y14	Z14	X15	Y15	Z15	X16	Y16	Z16	X17	Y17	Z17	X18	Y18	Z18	
264	2.2	-132.132	-10.0236	62.0921	-112.549	-28.2001	39.2478	-102.181	-43.2137	2.76887	-106.898	-54.6687	-18.5661	-135.932	18.9493	-17.7172	-121.903	14.8785	-43.7336	-117.602	-7.83004	-67.5653	-165.863	17.9928	-29.5858	-157.197	7.87082	-61.7204	-150.147	-20.8994	-83.2378	-186.355	4.37469	-23.745	-180.351	-6.22038	-54.5961	-169.68	-30.1927	-72.6085	-206.247	-11.9346	-15.3677	-202.761	-22.5106	-40.2833	-191.846	-39.947	-57.8165	-190.97	9.66984	33.2017	-197.147	11.2767	64.7286	-161.409	20.5112	53.1035	
265	2.20833	-129.615	-9.74127	55.0725	-114.994	-28.3917	34.7798	-101.966	-43.0815	3.99112	-109.889	-53.6214	-21.4204	-138.008	18.8974	-16.5748	-124.143	14.0537	-50.6218	-120.56	-7.72696	-69.3792	-164.929	18.8677	-27.8679	-163.073	9.77381	-62.4238	-154.256	-20.5197	-85.3847	-185.051	5.65614	-29.102	-185.485	-6.98631	-57.6921	-173.367	-29.4528	-74.7494	-207.214	-10.9023	-15.3756	-202.515	-24.6209	-45.7867	-193.048	-42.7764	-62.9183	-194.819	11.6132	32.4187	-198.51	13.3211	61.5646	-159.801	21.2525	49.7814	
266	2.21667	-131.41	-13.3695	52.0454	-117.132	-31.6293	29.0735	-105.554	-47.0948	0.389882	-113.148	-57.9457	-25.2916	-140.78	16.7666	-20.1221	-127.442	14.2483	-50.4343	-122.083	-10.7117	-71.3304	-170.558	15.5086	-31.7556	-164.723	5.50894	-66.8984	-156.724	-27.1935	-89.1231	-187.95	3.22913	-29.879	-187.194	-8.98179	-59.1096	-176.28	-37.4903	-80.6441	-208.318	-13.6651	-20.071	-207.387	-27.2708	-48.5214	-195.021	-44.8544	-65.261	-195.041	9.46072	26.5965	-202.053	7.33124	60.6808	-162.428	16.7052	47.7668	
267	2.225	-133.855	-19.3392	50.6406	-116.274	-39.1009	26.5406	-110.651	-56.0806	0.11414	-115.83	-67.9962	-28.3267	-142.476	11.3941	-22.3886	-131.054	4.73137	-56.8232	-129.023	-23.3787	-76.1663	-171.73	9.65356	-37.3885	-168.481	-1.16431	-68.3996	-159.636	-32.7807	-89.7057	-195.034	-3.93607	-30.8489	-189.745	-16.4578	-63.4271	-181.377	-41.0438	-79.6118	-210.548	-19.4861	-19.6117	-210.147	-32.9517	-48.1871	-200.943	-52.0805	-65.8042	-201.91	2.23696	25.2465	-204.53	1.74974	60.1599	-166.549	9.968	45.071	
268	2.23333	-135.77	-24.9422	50.5807	-122.426	-46.3632	26.1137	-110.858	-65.4531	-4.80588	-120.035	-78.5473	-24.9928	-142.584	3.19407	-28.7571	-135.898	-1.97798	-56.6088	-132.248	-33.8625	-77.9605	-177.282	0.316102	-38.4916	-174.282	-14.1118	-73.8502	-166.831	-41.3122	-89.2654	-199.353	-13.1807	-33.9831	-194.014	-25.1439	-62.6759	-185.42	-50.446	-77.4685	-219.181	-29.0728	-20.9421	-213.885	-42.2551	-48.0005	-202.151	-66.6514	-63.9857	-203.909	-4.48186	24.1524	-204.962	-2.91687	59.3215	-170.729	5.01786	38.8974	
269	2.24167	-136.157	-31.2159	52.0166	-120.681	-54.7133	25.8726	-114.585	-73.8352	-0.365064	-124.154	-89.0097	-27.6597	-147.918	-8.23947	-27.5423	-140.776	-14.7857	-59.7837	-133.766	-43.6436	-76.55	-181.556	-10.4499	-36.396	-178.165	-21.9465	-71.0106	-171.223	-54.311	-88.635	-197.998	-21.5911	-36.6009	-196.567	-37.9348	-65.5847	-189.102	-68.6817	-78.7497	-220.129	-38.2336	-18.3202	-217.997	-54.3598	-47.0715	-208.483	-76.4701	-60.2302	-204.681	-14.0815	24.2202	-204.685	-6.45776	56.2583	-168.731	-2.73165	41.7016	
270	2.25	-142.984	-36.6266	50.3119	-122.409	-60.9219	26.5815	-114.868	-82.0443	0.44481	-123.382	-97.2583	-21.4678	-149.995	-16.256	-30.2104	-144.448	-26.3997	-60.795	-137.385	-54.0589	-76.5356	-179.213	-18.7349	-41.297	-178.783	-33.1696	-72.1279	-170.045	-70.2555	-87.3105	-200.339	-31.4458	-35.383	-202.572	-47.0868	-62.3757	-187.302	-80.2848	-75.6655	-221.119	-47.0901	-17.1529	-217.93	-61.8851	-43.9656	-208.385	-90.6556	-59.8902	-206.449	-20.2357	22.5642	-207.873	-14.5663	55.1907	-173.017	-6.95313	38.7076	
271	2.25833	-141.526	-40.6224	50.4335	-122.124	-66.2067	28.7738	-114.985	-88.4362	4.43961	-127.567	-103.146	-16.1885	-148.68	-24.6745	-32.0856	-140.572	-37.3331	-59.9928	-138.255	-68.0554	-76.1232	-181.666	-28.4537	-42.042	-175.572	-42.8302	-71.0241	-170.29	-76.7459	-84.7637	-201.159	-40.961	-32.562	-198.099	-58.3748	-61.8222	-190.711	-89.5803	-71.0719	-219.572	-55.1137	-18.0081	-219.285	-76.101	-45.6435	-205.91	-102.185	-53.6599	-208.697	-26.3207	19.7891	-208.285	-17.005	54.5528	-173.607	-14.7506	36.5216	
272	2.26667	-141.312	-43.9121	55.3745	-126.279	-68.2692	35.9228	-116.335	-93.6468	5.87336	-122.826	-109.243	-9.32089	-153.39	-32.8386	-28.835	-141.77	-43.8369	-55.576	-139.61	-72.5632	-72.1903	-181.731	-35.4544	-39.9936	-178.386	-56.5389	-70.9833	-169.112	-86.2777	-80.8737	-200.943	-48.4657	-34.6052	-198.121	-64.366	-57.9902	-186.765	-97.5419	-66.7898	-221.738	-60.6696	-14.1799	-219.335	-81.9408	-41.3282	-209.157	-106.753	-48.2708	-209.795	-29.6337	25.2027	-208.368	-19.2349	56.8727	-173.466	-18.1364	39.9712	
273	2.275	-141.135	-45.0802	56.1196	-125.026	-70.504	41.9081	-117.681	-95.2396	14.6993	-121.606	-113.121	-2.92032	-147.297	-37.5358	-23.0123	-137.432	-51.4369	-52.2587	-132.145	-81.0207	-67.4278	-178.305	-41.4034	-34.7183	-177.108	-60.0091	-65.5827	-165.796	-94.3723	-76.6536	-202.108	-54.135	-32.5266	-195.585	-71.2877	-54.6556	-184.188	-107.195	-61.5538	-218.585	-65.1177	-11.6548	-217.313	-89.2162	-38.434	-202.716	-110.91	-45.2	-208.198	-32.1548	26.6159	-209.388	-22.1676	57.733	-176.222	-21.1232	40.5211	
274	2.28333	-143.013	-44.3791	61.8902	-119.679	-69.18	48.0741	-110.172	-95.7743	21.9786	-115.691	-114.954	4.28172	-149.071	-42.5609	-21.602	-137.98	-56.6587	-47.8083	-131.746	-87.6199	-61.8813	-175.198	-44.633	-31.992	-167.304	-65.9087	-61.7441	-160.543	-99.807	-70.134	-199.215	-58.6085	-27.6794	-194.014	-78.4679	-50.2563	-180.92	-110.786	-53.7516	-218.089	-69.9589	-10.8333	-212.701	-93.3706	-32.5875	-196.535	-119.588	-36.9146	-203.501	-35.4043	27.5068	-207.872	-24.0741	55.6556	-174.655	-19.4453	45.2654	
275	2.29167	-138.448	-39.41	67.6243	-116.796	-64.4615	55.182	-107.059	-91.2951	30.3633	-112.797	-112.522	9.97431	-142.089	-41.138	-15.6595	-129.803	-60.8177	-42.7671	-124.639	-89.6491	-53.3036	-170.558	-48.5241	-28.6451	-159.597	-71.4927	-55.4516	-156.163	-107.507	-59.7777	-190.823	-59.0488	-20.8002	-186.12	-83.0703	-44.5934	-169.556	-116.409	-44.3058	-209.526	-70.1525	-5.1371	-202.112	-94.3112	-26.8295	-185.853	-121.989	-24.4662	-204.98	-36.9073	30.5161	-210.995	-22.4886	57.7793	-171.855	-18.9937	46.1297	
276	2.3	-141.365	-33.2041	75.0413	-114.389	-56.6908	62.2301	-104.882	-81.9993	41.8788	-106.532	-103.055	21.8395	-135.778	-39.9218	-12.1706	-126.878	-55.2392	-32.9861	-119.073	-85.6253	-42.2759	-163.492	-46.7439	-23.4017	-152.688	-71.1127	-47.0636	-142.456	-108.515	-49.9382	-186.779	-60.7643	-16.641	-178.641	-83.3421	-37.0774	-160.523	-112.879	-35.2443	-203.546	-71.8175	-4.18924	-195.912	-95.4113	-20.7865	-176.802	-121.961	-16.7447	-200.259	-31.9237	33.4999	-207.956	-20.2332	61.1268	-170.54	-12.8384	51.3463	
277	2.30833	-138.008	-25.1714	82.7649	-114.239	-47.5609	68.5499	-99.4197	-72.6808	48.187	-97.6538	-93.101	30.0758	-131.013	-33.9923	-6.32956	-117.469	-51.8322	-27.4514	-107.954	-82.244	-35.8286	-158.306	-41.7398	-15.7886	-146.744	-65.2938	-39.7623	-133.525	-104.996	-41.0975	-175.903	-55.0872	-13.2178	-169.852	-79.519	-31.2119	-147.713	-109.083	-26.1711	-196.073	-67.4814	1.60036	-180.188	-91.0503	-14.6714	-166.91	-117.943	-12.6444	-198.999	-28.9524	36.9589	-205.863	-14.8074	66.0138	-169.544	-10.05	53.5545	
278	2.31667	-135.52	-15.8416	87.3021	-106.595	-36.9068	73.6638	-90.4356	-59.5474	51.6626	-87.2269	-80.4817	31.6975	-124.946	-22.0408	-1.36471	-112.393	-41.0734	-22.7386	-101.715	-68.5559	-32.7298	-149.417	-31.1251	-12.592	-138.216	-57.1458	-36.8206	-126.48	-92.6531	-37.4833	-172.292	-47.9342	-9.64161	-160.269	-73.1773	-27.5281	-142.795	-100.264	-24.3351	-192.588	-60.7033	4.00743	-171.908	-84.158	-11.6958	-157.208	-105.515	-8.59008	-195.625	-21.6309	39.3739	-203.874	-5.78437	69.0205	-164.816	-0.254676	57.8736	
279	2.325	-132.643	-6.23296	87.1595	-109.289	-26.4294	74.0538	-85.0373	-47.2978	51.8173	-82.9115	-66.2152	32.3699	-122.816	-9.96136	-0.34186	-106.463	-25.1152	-19.9484	-96.3864	-55.4717	-32.0432	-147.201	-21.2229	-13.9169	-133.561	-44.7146	-36.3678	-120.501	-78.4824	-40.06	-166.874	-37.7438	-11.092	-153.447	-62.3884	-28.0034	-134.375	-88.6589	-23.6371	-185.882	-51.6901	3.13392	-172.455	-72.3413	-11.9739	-155.264	-97.3691	-10.7214	-187.706	-9.45427	38.1885	-204.68	0.945937	67.2281	-166.436	11.6829	62.1696	
280	2.33333	-132.583	4.34887	86.2948	-105.076	-14.1141	70.7426	-88.6312	-32.9337	46.9409	-79.3807	-50.5801	29.9183	-123.722	4.45534	0.244169	-110.15	-9.85007	-23.3418	-95.4007	-35.2583	-34.213	-144.206	-5.95891	-14.0615	-133.598	-26.7511	-37.9038	-114.674	-60.6456	-45.5366	-166.354	-23.8325	-11.1466	-148.267	-48.1167	-31.3683	-132.745	-77.1092	-30.4461	-183.662	-39.8473	-0.0995783	-167.991	-62.8685	-16.0439	-149.807	-84.5604	-16.0839	-190.146	0.407124	37.139	-206.189	8.4176	69.0893	-168.408	19.6941	61.1639	
281	2.34167	-135.05	10.1447	78.8998	-104.022	-4.93926	63.5604	-87.6241	-22.5401	42.9502	-84.4481	-38.4857	20.412	-125.848	16.2298	-3.32987	-106.531	3.53353	-29.0528	-94.01	-23.6761	-39.5816	-146.401	5.83291	-20.5651	-132.521	-16.4909	-45.0359	-120.26	-46.963	-53.0197	-164.405	-12.8489	-18.9104	-153.501	-33.8048	-37.3444	-129.509	-60.5032	-38.9103	-187.248	-29.6549	-3.8935	-165.355	-49.3046	-22.5474	-148.281	-73.6579	-24.3498	-189.89	8.00109	33.8967	-204.613	15.0599	65.6301	-168.094	26.8384	57.5683	
282	2.35	-131.582	15.3482	72.1897	-108.966	-1.21817	58.6874	-87.3404	-16.1865	35.1027	-84.564	-32.8307	7.84179	-125.993	26.3904	-10.6998	-110.085	14.6703	-32.6385	-97.7914	-15.792	-46.5368	-152.73	13.5297	-26.0475	-135.583	-2.50316	-51.2323	-123.9	-32.7635	-61.6721	-167.337	-1.75087	-24.4804	-154.224	-21.1428	-44.8091	-137.553	-51.7696	-51.1427	-186.247	-18.7758	-12.3787	-171.87	-40.3767	-32.2135	-152.488	-60.7112	-35.3276	-192.461	17.4842	30.0139	-207.116	18.1892	61.8716	-166.844	35.4258	53.8531	
